<?xml version="1.0" encoding="UTF-8"?>
<svg width="75px" height="15px" viewBox="0 0 75 15" version="1.1" xmlns="http://www.w3.org/2000/svg" xmlns:xlink="http://www.w3.org/1999/xlink">
    <!-- Generator: Sketch 55.2 (78181) - https://sketchapp.com -->
    <title>Google Fonts Smaller</title>
    <desc>Created with Sketch.</desc>
    <g id="Google-Fonts-Smaller" stroke="none" stroke-width="1" fill="none" fill-rule="evenodd">
        <path d="M5.52,11.192 C4.63199556,11.192 3.80400384,10.9700022 3.036,10.526 C2.26799616,10.0819978 1.65800226,9.48400376 1.206,8.732 C0.75399774,7.97999624 0.528,7.16000444 0.528,6.272 C0.528,5.38399556 0.75399774,4.56400376 1.206,3.812 C1.65800226,3.05999624 2.26799616,2.46200222 3.036,2.018 C3.80400384,1.57399778 4.63199556,1.352 5.52,1.352 C6.82400652,1.352 7.94799528,1.80399548 8.892,2.708 L7.944,3.656 C7.2639966,3.0159968 6.45600468,2.696 5.52,2.696 C4.87199676,2.696 4.2780027,2.8559984 3.738,3.176 C3.1979973,3.4960016 2.77200156,3.92999726 2.46,4.478 C2.14799844,5.02600274 1.992,5.62399676 1.992,6.272 C1.992,6.92000324 2.14799844,7.51799726 2.46,8.066 C2.77200156,8.61400274 3.1979973,9.0479984 3.738,9.368 C4.2780027,9.6880016 4.87199676,9.848 5.52,9.848 C6.09600288,9.848 6.58199802,9.75600092 6.978,9.572 C7.37400198,9.38799908 7.71599856,9.15200144 8.004,8.864 C8.39600196,8.47199804 8.63999952,7.90800368 8.736,7.172 L5.52,7.172 L5.52,5.828 L10.044,5.828 C10.0920002,6.0680012 10.116,6.3479984 10.116,6.668 C10.116,7.23600284 10.0240009,7.7999972 9.84,8.36 C9.65599908,8.9200028 9.36000204,9.40399796 8.952,9.812 C8.0719956,10.7320046 6.92800704,11.192 5.52,11.192 Z M31.5,1.688 L32.892,1.688 L32.892,11 L31.5,11 L31.5,1.688 Z M13.776,11.192 C13.1999971,11.192 12.6680024,11.0540014 12.18,10.778 C11.6919976,10.5019986 11.3060014,10.1220024 11.022,9.638 C10.7379986,9.15399758 10.596,8.61600296 10.596,8.024 C10.596,7.423997 10.7379986,6.88200242 11.022,6.398 C11.3060014,5.91399758 11.6919976,5.53600136 12.18,5.264 C12.6680024,4.99199864 13.1999971,4.856 13.776,4.856 C14.3520029,4.856 14.8839976,4.99199864 15.372,5.264 C15.8600024,5.53600136 16.2459986,5.91399758 16.53,6.398 C16.8140014,6.88200242 16.956,7.423997 16.956,8.024 C16.956,8.61600296 16.8140014,9.15399758 16.53,9.638 C16.2459986,10.1220024 15.8600024,10.5019986 15.372,10.778 C14.8839976,11.0540014 14.3520029,11.192 13.776,11.192 Z M20.712,11.192 C20.1359971,11.192 19.6040024,11.0540014 19.116,10.778 C18.6279976,10.5019986 18.2420014,10.1220024 17.958,9.638 C17.6739986,9.15399758 17.532,8.61600296 17.532,8.024 C17.532,7.423997 17.6739986,6.88200242 17.958,6.398 C18.2420014,5.91399758 18.6279976,5.53600136 19.116,5.264 C19.6040024,4.99199864 20.1359971,4.856 20.712,4.856 C21.2880029,4.856 21.8199976,4.99199864 22.308,5.264 C22.7960024,5.53600136 23.1819986,5.91399758 23.466,6.398 C23.7500014,6.88200242 23.892,7.423997 23.892,8.024 C23.892,8.61600296 23.7500014,9.15399758 23.466,9.638 C23.1819986,10.1220024 22.7960024,10.5019986 22.308,10.778 C21.8199976,11.0540014 21.2880029,11.192 20.712,11.192 Z M27.528,14.036 C26.8239965,14.036 26.2320024,13.8480019 25.752,13.472 C25.2719976,13.0959981 24.928001,12.6600025 24.72,12.164 L25.932,11.66 C26.0600006,11.9640015 26.2599986,12.2279989 26.532,12.452 C26.8040014,12.6760011 27.135998,12.788 27.528,12.788 C28.0560026,12.788 28.4699985,12.6280016 28.77,12.308 C29.0700015,11.9879984 29.22,11.528003 29.22,10.928 L29.22,10.472 L29.172,10.472 C29.0039992,10.680001 28.7740015,10.8519993 28.482,10.988 C28.1899985,11.1240007 27.8640018,11.192 27.504,11.192 C26.9759974,11.192 26.4800023,11.0520014 26.016,10.772 C25.5519977,10.4919986 25.1780014,10.1100024 24.894,9.626 C24.6099986,9.14199758 24.468,8.61200288 24.468,8.036 C24.468,7.45199708 24.6099986,6.91800242 24.894,6.434 C25.1780014,5.94999758 25.5539977,5.56600142 26.022,5.282 C26.4900023,4.99799858 26.9839974,4.856 27.504,4.856 C27.8640018,4.856 28.1899985,4.92399932 28.482,5.06 C28.7740015,5.19600068 29.0039992,5.363999 29.172,5.564 L29.22,5.564 L29.22,5.048 L30.54,5.048 L30.54,10.736 C30.54,11.8400055 30.2580028,12.6659973 29.694,13.214 C29.1299972,13.7620027 28.4080044,14.036 27.528,14.036 Z M36.708,11.192 C36.115997,11.192 35.5800024,11.0520014 35.1,10.772 C34.6199976,10.4919986 34.2440014,10.1100024 33.972,9.626 C33.6999986,9.14199758 33.564,8.60800292 33.564,8.024 C33.564,7.40799692 33.6979987,6.8600024 33.966,6.38 C34.2340013,5.8999976 34.5959977,5.52600134 35.052,5.258 C35.5080023,4.98999866 36.0079973,4.856 36.552,4.856 C37.2800036,4.856 37.8679978,5.06799788 38.316,5.492 C38.7640022,5.91600212 39.0799991,6.37599752 39.264,6.872 L39.408,7.232 L35.172,8.984 C35.5000016,9.6240032 36.0119965,9.944 36.708,9.944 C37.3480032,9.944 37.867998,9.65200292 38.268,9.068 L39.348,9.788 C39.1079988,10.1480018 38.7680022,10.4719986 38.328,10.76 C37.8879978,11.0480014 37.3480032,11.192 36.708,11.192 Z M37.776,6.752 C37.6959996,6.551999 37.5480011,6.39000062 37.332,6.266 C37.1159989,6.14199938 36.8720014,6.08 36.6,6.08 C36.3519988,6.08 36.0960013,6.15199928 35.832,6.296 C35.5679987,6.44000072 35.3520008,6.6519986 35.184,6.932 C35.0159992,7.2120014 34.936,7.54399808 34.944,7.928 L37.776,6.752 Z M13.776,9.944 C14.0960016,9.944 14.3919986,9.86200082 14.664,9.698 C14.9360014,9.53399918 15.1539992,9.30600146 15.318,9.014 C15.4820008,8.72199854 15.564,8.39200184 15.564,8.024 C15.564,7.65599816 15.4820008,7.32600146 15.318,7.034 C15.1539992,6.74199854 14.9360014,6.51400082 14.664,6.35 C14.3919986,6.18599918 14.0960016,6.104 13.776,6.104 C13.4559984,6.104 13.1600014,6.18599918 12.888,6.35 C12.6159986,6.51400082 12.3980008,6.74199854 12.234,7.034 C12.0699992,7.32600146 11.988,7.65599816 11.988,8.024 C11.988,8.39200184 12.0699992,8.72199854 12.234,9.014 C12.3980008,9.30600146 12.6159986,9.53399918 12.888,9.698 C13.1600014,9.86200082 13.4559984,9.944 13.776,9.944 Z M20.712,9.944 C21.0320016,9.944 21.3279986,9.86200082 21.6,9.698 C21.8720014,9.53399918 22.0899992,9.30600146 22.254,9.014 C22.4180008,8.72199854 22.5,8.39200184 22.5,8.024 C22.5,7.65599816 22.4180008,7.32600146 22.254,7.034 C22.0899992,6.74199854 21.8720014,6.51400082 21.6,6.35 C21.3279986,6.18599918 21.0320016,6.104 20.712,6.104 C20.3919984,6.104 20.0960014,6.18599918 19.824,6.35 C19.5519986,6.51400082 19.3340008,6.74199854 19.17,7.034 C19.0059992,7.32600146 18.924,7.65599816 18.924,8.024 C18.924,8.39200184 19.0059992,8.72199854 19.17,9.014 C19.3340008,9.30600146 19.5519986,9.53399918 19.824,9.698 C20.0960014,9.86200082 20.3919984,9.944 20.712,9.944 Z M27.624,9.944 C27.9360016,9.944 28.2219987,9.86200082 28.482,9.698 C28.7420013,9.53399918 28.9459993,9.30600146 29.094,9.014 C29.2420007,8.72199854 29.316,8.3960018 29.316,8.036 C29.316,7.66799816 29.2420007,7.33800146 29.094,7.046 C28.9459993,6.75399854 28.7420013,6.52400084 28.482,6.356 C28.2219987,6.18799916 27.9360016,6.104 27.624,6.104 C27.3039984,6.104 27.0100013,6.18799916 26.742,6.356 C26.4739987,6.52400084 26.2600008,6.75599852 26.1,7.052 C25.9399992,7.34800148 25.86,7.6759982 25.86,8.036 C25.86,8.3960018 25.9399992,8.72199854 26.1,9.014 C26.2600008,9.30600146 26.4739987,9.53399918 26.742,9.698 C27.0100013,9.86200082 27.3039984,9.944 27.624,9.944 Z M43.2,2.408 L48.648,2.408 L48.648,3.944 L44.82,3.944 L44.82,6.032 L48.264,6.032 L48.264,7.568 L44.82,7.568 L44.82,11 L43.2,11 L43.2,2.408 Z M52.788,11.192 C52.1559968,11.192 51.5920025,11.0500014 51.096,10.766 C50.5999975,10.4819986 50.2140014,10.0940025 49.938,9.602 C49.6619986,9.10999754 49.524,8.55600308 49.524,7.94 C49.524,7.33199696 49.6619986,6.78000248 49.938,6.284 C50.2140014,5.78799752 50.5999975,5.39800142 51.096,5.114 C51.5920025,4.82999858 52.1559968,4.688 52.788,4.688 C53.4120031,4.688 53.9719975,4.82999858 54.468,5.114 C54.9640025,5.39800142 55.3499986,5.78799752 55.626,6.284 C55.9020014,6.78000248 56.04,7.33199696 56.04,7.94 C56.04,8.55600308 55.9020014,9.10999754 55.626,9.602 C55.3499986,10.0940025 54.9640025,10.4819986 54.468,10.766 C53.9719975,11.0500014 53.4120031,11.192 52.788,11.192 Z M52.788,9.74 C53.0920015,9.74 53.3719987,9.66800072 53.628,9.524 C53.8840013,9.37999928 54.0879992,9.17200136 54.24,8.9 C54.3920008,8.62799864 54.468,8.30800184 54.468,7.94 C54.468,7.5799982 54.3920008,7.26400136 54.24,6.992 C54.0879992,6.71999864 53.8840013,6.51200072 53.628,6.368 C53.3719987,6.22399928 53.0920015,6.152 52.788,6.152 C52.4839985,6.152 52.2040013,6.22399928 51.948,6.368 C51.6919987,6.51200072 51.4860008,6.71999864 51.33,6.992 C51.1739992,7.26400136 51.096,7.5799982 51.096,7.94 C51.096,8.3000018 51.1739992,8.61799862 51.33,8.894 C51.4860008,9.17000138 51.6919987,9.37999928 51.948,9.524 C52.2040013,9.66800072 52.4839985,9.74 52.788,9.74 Z M57.24,4.88 L58.716,4.88 L58.716,5.648 L58.812,5.648 C58.9960009,5.35199852 59.2559983,5.11800086 59.592,4.946 C59.9280017,4.77399914 60.291998,4.688 60.684,4.688 C61.4200037,4.688 61.9799981,4.91199776 62.364,5.36 C62.7480019,5.80800224 62.94,6.41999612 62.94,7.196 L62.94,11 L61.368,11 L61.368,7.388 C61.368,6.99599804 61.268001,6.69200108 61.068,6.476 C60.867999,6.25999892 60.5880018,6.152 60.228,6.152 C59.8039979,6.152 59.4620013,6.31599836 59.202,6.644 C58.9419987,6.97200164 58.812,7.38399752 58.812,7.88 L58.812,11 L57.24,11 L57.24,4.88 Z M67.092,11.096 C66.7879985,11.096 66.5080013,11.0500005 66.252,10.958 C65.996,10.8659995 65.7880008,10.7400008 65.628,10.58 C65.2519981,10.2199982 65.064,9.70800332 65.064,9.044 L65.064,6.224 L63.996,6.224 L63.996,4.88 L65.064,4.88 L65.064,3.152 L66.636,3.152 L66.636,4.88 L68.136,4.88 L68.136,6.224 L66.636,6.224 L66.636,8.756 C66.636,9.06800156 66.7039993,9.29199932 66.84,9.428 C66.9520006,9.55600064 67.1439986,9.62 67.416,9.62 C67.5680008,9.62 67.6939995,9.6000002 67.794,9.56 C67.8940005,9.5199998 68.0239992,9.45200048 68.184,9.356 L68.184,10.892 C67.8399983,11.0280007 67.4760019,11.096 67.092,11.096 Z M71.772,11.192 C71.0279963,11.192 70.4260023,11.0400015 69.966,10.736 C69.5059977,10.4319985 69.1840009,10.0360024 69,9.548 L70.404,8.936 C70.5320006,9.22400144 70.7139988,9.44199926 70.95,9.59 C71.1860012,9.73800074 71.4599984,9.812 71.772,9.812 C72.0600014,9.812 72.299999,9.76600046 72.492,9.674 C72.684001,9.58199954 72.78,9.43200104 72.78,9.224 C72.78,9.023999 72.6920009,8.8740005 72.516,8.774 C72.3399991,8.6739995 72.0760018,8.5840004 71.724,8.504 L71.004,8.348 C70.5079975,8.2279994 70.0960016,8.01000158 69.768,7.694 C69.4399984,7.37799842 69.276,6.98400236 69.276,6.512 C69.276,6.15999824 69.3819989,5.8440014 69.594,5.564 C69.8060011,5.2839986 70.0939982,5.06800076 70.458,4.916 C70.8220018,4.76399924 71.2239978,4.688 71.664,4.688 C72.9280063,4.688 73.7719979,5.13199556 74.196,6.02 L72.852,6.608 C72.6119988,6.17599784 72.2280026,5.96 71.7,5.96 C71.4279986,5.96 71.2120008,6.0099995 71.052,6.11 C70.8919992,6.2100005 70.812,6.33599924 70.812,6.488 C70.812,6.77600144 71.0839973,6.99199928 71.628,7.136 L72.528,7.352 C73.136003,7.50400076 73.5939985,7.73599844 73.902,8.048 C74.2100015,8.36000156 74.364,8.74399772 74.364,9.2 C74.364,9.59200196 74.2500011,9.9379985 74.022,10.238 C73.7939989,10.5380015 73.482002,10.7719992 73.086,10.94 C72.689998,11.1080008 72.2520024,11.192 71.772,11.192 Z" id="gFonts" fill="#FFFFFF" fill-rule="nonzero"></path>
    </g>
</svg>