<?xml version="1.0" encoding="UTF-8"?>
<svg width="94px" height="19px" viewBox="0 0 94 19" version="1.1" xmlns="http://www.w3.org/2000/svg" xmlns:xlink="http://www.w3.org/1999/xlink">
    <!-- Generator: Sketch 55.2 (78181) - https://sketchapp.com -->
    <title>Google Fonts</title>
    <desc>Created with Sketch.</desc>
    <g id="Google-Fonts" stroke="none" stroke-width="1" fill="none" fill-rule="evenodd">
        <path d="M6.9,14.24 C5.78999445,14.24 4.7550048,13.9625028 3.795,13.4075 C2.8349952,12.8524972 2.07250282,12.1050047 1.5075,11.165 C0.942497175,10.2249953 0.66,9.20000555 0.66,8.09 C0.66,6.97999445 0.942497175,5.9550047 1.5075,5.015 C2.07250282,4.0749953 2.8349952,3.32750278 3.795,2.7725 C4.7550048,2.21749723 5.78999445,1.94 6.9,1.94 C8.53000815,1.94 9.9349941,2.50499435 11.115,3.635 L9.93,4.82 C9.07999575,4.019996 8.07000585,3.62 6.9,3.62 C6.08999595,3.62 5.34750337,3.819998 4.6725,4.22 C3.99749663,4.620002 3.46500195,5.16249658 3.075,5.8475 C2.68499805,6.53250342 2.49,7.27999595 2.49,8.09 C2.49,8.90000405 2.68499805,9.64749657 3.075,10.3325 C3.46500195,11.0175034 3.99749663,11.559998 4.6725,11.96 C5.34750337,12.360002 6.08999595,12.56 6.9,12.56 C7.6200036,12.56 8.22749752,12.4450011 8.7225,12.215 C9.21750247,11.9849989 9.6449982,11.6900018 10.005,11.33 C10.4950024,10.8399975 10.7999994,10.1350046 10.92,9.215 L6.9,9.215 L6.9,7.535 L12.555,7.535 C12.6150003,7.8350015 12.645,8.184998 12.645,8.585 C12.645,9.29500355 12.5300012,9.9999965 12.3,10.7 C12.0699989,11.4000035 11.7000026,12.0049975 11.19,12.515 C10.0899945,13.6650058 8.66,14.24 6.9,14.24 Z M39.375,2.36 L41.115,2.36 L41.115,14 L39.375,14 L39.375,2.36 Z M17.22,14.24 C16.4999964,14.24 15.835003,14.0675017 15.225,13.7225 C14.6149969,13.3774983 14.1325018,12.902503 13.7775,12.2975 C13.4224982,11.692497 13.245,11.0200037 13.245,10.28 C13.245,9.52999625 13.4224982,8.85250303 13.7775,8.2475 C14.1325018,7.64249698 14.6149969,7.1700017 15.225,6.83 C15.835003,6.4899983 16.4999964,6.32 17.22,6.32 C17.9400036,6.32 18.6049969,6.4899983 19.215,6.83 C19.825003,7.1700017 20.3074982,7.64249698 20.6625,8.2475 C21.0175018,8.85250303 21.195,9.52999625 21.195,10.28 C21.195,11.0200037 21.0175018,11.692497 20.6625,12.2975 C20.3074982,12.902503 19.825003,13.3774983 19.215,13.7225 C18.6049969,14.0675017 17.9400036,14.24 17.22,14.24 Z M25.89,14.24 C25.1699964,14.24 24.505003,14.0675017 23.895,13.7225 C23.2849969,13.3774983 22.8025018,12.902503 22.4475,12.2975 C22.0924982,11.692497 21.915,11.0200037 21.915,10.28 C21.915,9.52999625 22.0924982,8.85250303 22.4475,8.2475 C22.8025018,7.64249698 23.2849969,7.1700017 23.895,6.83 C24.505003,6.4899983 25.1699964,6.32 25.89,6.32 C26.6100036,6.32 27.2749969,6.4899983 27.885,6.83 C28.495003,7.1700017 28.9774982,7.64249698 29.3325,8.2475 C29.6875018,8.85250303 29.865,9.52999625 29.865,10.28 C29.865,11.0200037 29.6875018,11.692497 29.3325,12.2975 C28.9774982,12.902503 28.495003,13.3774983 27.885,13.7225 C27.2749969,14.0675017 26.6100036,14.24 25.89,14.24 Z M34.41,17.795 C33.5299956,17.795 32.790003,17.5600024 32.19,17.09 C31.589997,16.6199976 31.1600013,16.0750031 30.9,15.455 L32.415,14.825 C32.5750008,15.2050019 32.8249983,15.5349986 33.165,15.815 C33.5050017,16.0950014 33.9199975,16.235 34.41,16.235 C35.0700033,16.235 35.5874981,16.035002 35.9625,15.635 C36.3375019,15.234998 36.525,14.6600037 36.525,13.91 L36.525,13.34 L36.465,13.34 C36.254999,13.6000013 35.9675018,13.8149992 35.6025,13.985 C35.2374982,14.1550009 34.8300022,14.24 34.38,14.24 C33.7199967,14.24 33.1000029,14.0650018 32.52,13.715 C31.9399971,13.3649982 31.4725018,12.887503 31.1175,12.2825 C30.7624982,11.677497 30.585,11.0150036 30.585,10.295 C30.585,9.56499635 30.7624982,8.89750302 31.1175,8.2925 C31.4725018,7.68749698 31.9424971,7.20750178 32.5275,6.8525 C33.1125029,6.49749823 33.7299967,6.32 34.38,6.32 C34.8300022,6.32 35.2374982,6.40499915 35.6025,6.575 C35.9675018,6.74500085 36.254999,6.95499875 36.465,7.205 L36.525,7.205 L36.525,6.56 L38.175,6.56 L38.175,13.67 C38.175,15.0500069 37.8225035,16.0824966 37.1175,16.7675 C36.4124965,17.4525034 35.5100055,17.795 34.41,17.795 Z M45.885,14.24 C45.1449963,14.24 44.475003,14.0650018 43.875,13.715 C43.274997,13.3649982 42.8050017,12.887503 42.465,12.2825 C42.1249983,11.677497 41.955,11.0100037 41.955,10.28 C41.955,9.50999615 42.1224983,8.825003 42.4575,8.225 C42.7925017,7.624997 43.2449972,7.15750167 43.815,6.8225 C44.3850028,6.48749833 45.0099966,6.32 45.69,6.32 C46.6000046,6.32 47.3349972,6.58499735 47.895,7.115 C48.455,7.64500265 48.8499988,8.2199969 49.08,8.84 L49.26,9.29 L43.965,11.48 C44.375002,12.280004 45.0149956,12.68 45.885,12.68 C46.685004,12.68 47.3349975,12.3150037 47.835,11.585 L49.185,12.485 C48.8849985,12.9350023 48.4600028,13.3399982 47.91,13.7 C47.3599972,14.0600018 46.685004,14.24 45.885,14.24 Z M47.22,8.69 C47.1199995,8.43999875 46.9350014,8.23750078 46.665,8.0825 C46.3949986,7.92749923 46.0900017,7.85 45.75,7.85 C45.4399984,7.85 45.1200016,7.9399991 44.79,8.12 C44.4599983,8.3000009 44.190001,8.56499825 43.98,8.915 C43.769999,9.26500175 43.6699999,9.6799976 43.68,10.16 L47.22,8.69 Z M17.22,12.68 C17.620002,12.68 17.9899983,12.577501 18.33,12.3725 C18.6700017,12.167499 18.942499,11.8825018 19.1475,11.5175 C19.352501,11.1524982 19.455,10.7400023 19.455,10.28 C19.455,9.8199977 19.352501,9.40750183 19.1475,9.0425 C18.942499,8.67749818 18.6700017,8.39250103 18.33,8.1875 C17.9899983,7.98249897 17.620002,7.88 17.22,7.88 C16.819998,7.88 16.4500017,7.98249897 16.11,8.1875 C15.7699983,8.39250103 15.497501,8.67749818 15.2925,9.0425 C15.087499,9.40750183 14.985,9.8199977 14.985,10.28 C14.985,10.7400023 15.087499,11.1524982 15.2925,11.5175 C15.497501,11.8825018 15.7699983,12.167499 16.11,12.3725 C16.4500017,12.577501 16.819998,12.68 17.22,12.68 Z M25.89,12.68 C26.290002,12.68 26.6599983,12.577501 27,12.3725 C27.3400017,12.167499 27.612499,11.8825018 27.8175,11.5175 C28.022501,11.1524982 28.125,10.7400023 28.125,10.28 C28.125,9.8199977 28.022501,9.40750183 27.8175,9.0425 C27.612499,8.67749818 27.3400017,8.39250103 27,8.1875 C26.6599983,7.98249897 26.290002,7.88 25.89,7.88 C25.489998,7.88 25.1200017,7.98249897 24.78,8.1875 C24.4399983,8.39250103 24.167501,8.67749818 23.9625,9.0425 C23.757499,9.40750183 23.655,9.8199977 23.655,10.28 C23.655,10.7400023 23.757499,11.1524982 23.9625,11.5175 C24.167501,11.8825018 24.4399983,12.167499 24.78,12.3725 C25.1200017,12.577501 25.489998,12.68 25.89,12.68 Z M34.53,12.68 C34.9200019,12.68 35.2774984,12.577501 35.6025,12.3725 C35.9275016,12.167499 36.1824991,11.8825018 36.3675,11.5175 C36.5525009,11.1524982 36.645,10.7450023 36.645,10.295 C36.645,9.8349977 36.5525009,9.42250183 36.3675,9.0575 C36.1824991,8.69249818 35.9275016,8.40500105 35.6025,8.195 C35.2774984,7.98499895 34.9200019,7.88 34.53,7.88 C34.129998,7.88 33.7625017,7.98499895 33.4275,8.195 C33.0924983,8.40500105 32.825,8.69499815 32.625,9.065 C32.424999,9.43500185 32.325,9.84499775 32.325,10.295 C32.325,10.7450023 32.424999,11.1524982 32.625,11.5175 C32.825,11.8825018 33.0924983,12.167499 33.4275,12.3725 C33.7625017,12.577501 34.129998,12.68 34.53,12.68 Z M54,3.26 L60.81,3.26 L60.81,5.18 L56.025,5.18 L56.025,7.79 L60.33,7.79 L60.33,9.71 L56.025,9.71 L56.025,14 L54,14 L54,3.26 Z M65.985,14.24 C65.194996,14.24 64.4900031,14.0625018 63.87,13.7075 C63.2499969,13.3524982 62.7675017,12.8675031 62.4225,12.2525 C62.0774983,11.6374969 61.905,10.9450039 61.905,10.175 C61.905,9.4149962 62.0774983,8.7250031 62.4225,8.105 C62.7675017,7.4849969 63.2499969,6.99750177 63.87,6.6425 C64.4900031,6.28749822 65.194996,6.11 65.985,6.11 C66.7650039,6.11 67.4649969,6.28749822 68.085,6.6425 C68.7050031,6.99750177 69.1874983,7.4849969 69.5325,8.105 C69.8775017,8.7250031 70.05,9.4149962 70.05,10.175 C70.05,10.9450039 69.8775017,11.6374969 69.5325,12.2525 C69.1874983,12.8675031 68.7050031,13.3524982 68.085,13.7075 C67.4649969,14.0625018 66.7650039,14.24 65.985,14.24 Z M65.985,12.425 C66.3650019,12.425 66.7149984,12.3350009 67.035,12.155 C67.3550016,11.9749991 67.609999,11.7150017 67.8,11.375 C67.9900009,11.0349983 68.085,10.6350023 68.085,10.175 C68.085,9.72499775 67.9900009,9.3300017 67.8,8.99 C67.609999,8.6499983 67.3550016,8.3900009 67.035,8.21 C66.7149984,8.0299991 66.3650019,7.94 65.985,7.94 C65.6049981,7.94 65.2550016,8.0299991 64.935,8.21 C64.6149984,8.3900009 64.357501,8.6499983 64.1625,8.99 C63.967499,9.3300017 63.87,9.72499775 63.87,10.175 C63.87,10.6250022 63.967499,11.0224983 64.1625,11.3675 C64.357501,11.7125017 64.6149984,11.9749991 64.935,12.155 C65.2550016,12.3350009 65.6049981,12.425 65.985,12.425 Z M71.55,6.35 L73.395,6.35 L73.395,7.31 L73.515,7.31 C73.7450011,6.93999815 74.0699979,6.64750107 74.49,6.4325 C74.9100021,6.21749892 75.3649975,6.11 75.855,6.11 C76.7750046,6.11 77.4749976,6.3899972 77.955,6.95 C78.4350024,7.5100028 78.675,8.27499515 78.675,9.245 L78.675,14 L76.71,14 L76.71,9.485 C76.71,8.99499755 76.5850013,8.61500135 76.335,8.345 C76.0849987,8.07499865 75.7350022,7.94 75.285,7.94 C74.7549973,7.94 74.3275016,8.14499795 74.0025,8.555 C73.6774984,8.96500205 73.515,9.4799969 73.515,10.1 L73.515,14 L71.55,14 L71.55,6.35 Z M83.865,14.12 C83.4849981,14.12 83.1350016,14.0625006 82.815,13.9475 C82.495,13.8324994 82.235001,13.675001 82.035,13.475 C81.5649976,13.0249978 81.33,12.3850042 81.33,11.555 L81.33,8.03 L79.995,8.03 L79.995,6.35 L81.33,6.35 L81.33,4.19 L83.295,4.19 L83.295,6.35 L85.17,6.35 L85.17,8.03 L83.295,8.03 L83.295,11.195 C83.295,11.5850019 83.3799991,11.8649991 83.55,12.035 C83.6900007,12.1950008 83.9299983,12.275 84.27,12.275 C84.4600009,12.275 84.6174994,12.2500003 84.7425,12.2 C84.8675006,12.1499998 85.029999,12.0650006 85.23,11.945 L85.23,13.865 C84.7999978,14.0350008 84.3450024,14.12 83.865,14.12 Z M89.715,14.24 C88.7849953,14.24 88.0325029,14.0500019 87.4575,13.67 C86.8824971,13.2899981 86.4800012,12.7950031 86.25,12.185 L88.005,11.42 C88.1650008,11.7800018 88.3924985,12.0524991 88.6875,12.2375 C88.9825015,12.4225009 89.324998,12.515 89.715,12.515 C90.0750018,12.515 90.3749988,12.4575006 90.615,12.3425 C90.8550012,12.2274994 90.975,12.0400013 90.975,11.78 C90.975,11.5299988 90.8650011,11.3425006 90.645,11.2175 C90.4249989,11.0924994 90.0950022,10.9800005 89.655,10.88 L88.755,10.685 C88.1349969,10.5349993 87.620002,10.262502 87.21,9.8675 C86.799998,9.47249803 86.595,8.98000295 86.595,8.39 C86.595,7.9499978 86.7274987,7.55500175 86.9925,7.205 C87.2575013,6.85499825 87.6174977,6.58500095 88.0725,6.395 C88.5275023,6.20499905 89.0299972,6.11 89.58,6.11 C91.1600079,6.11 92.2149974,6.66499445 92.745,7.775 L91.065,8.51 C90.7649985,7.9699973 90.2850033,7.7 89.625,7.7 C89.2849983,7.7 89.015001,7.76249937 88.815,7.8875 C88.614999,8.01250063 88.515,8.16999905 88.515,8.36 C88.515,8.7200018 88.8549966,8.9899991 89.535,9.17 L90.66,9.44 C91.4200038,9.63000095 91.9924981,9.91999805 92.3775,10.31 C92.7625019,10.700002 92.955,11.1799972 92.955,11.75 C92.955,12.2400025 92.8125014,12.6724981 92.5275,13.0475 C92.2424986,13.4225019 91.8525025,13.714999 91.3575,13.925 C90.8624975,14.135001 90.315003,14.24 89.715,14.24 Z" id="gFonts" fill="#FFFFFF" fill-rule="nonzero"></path>
    </g>
</svg>