<?xml version="1.0" encoding="UTF-8"?>
<svg width="39px" height="13px" viewBox="0 0 39 13" version="1.1" xmlns="http://www.w3.org/2000/svg" xmlns:xlink="http://www.w3.org/1999/xlink">
    <!-- Generator: Sketch 55.2 (78181) - https://sketchapp.com -->
    <title>Tiny Google Logo</title>
    <desc>Created with Sketch.</desc>
    <g id="Tiny-Google-Logo" stroke="none" stroke-width="1" fill="none" fill-rule="evenodd">
        <path d="M7.42226562,10.16 C6.68226193,10.16 5.99226883,9.97500185 5.35226563,9.605 C4.71226243,9.23499815 4.20393418,8.7366698 3.82726562,8.11 C3.45059708,7.4833302 3.26226562,6.8000037 3.26226562,6.06 C3.26226562,5.3199963 3.45059708,4.6366698 3.82726562,4.01 C4.20393418,3.3833302 4.71226243,2.88500185 5.35226563,2.515 C5.99226883,2.14499815 6.68226193,1.96 7.42226562,1.96 C8.50893773,1.96 9.44559503,2.3366629 10.2322656,3.09 L9.44226563,3.88 C8.87559613,3.346664 8.20226953,3.08 7.42226562,3.08 C6.88226293,3.08 6.38726788,3.213332 5.93726563,3.48 C5.48726337,3.746668 5.13226692,4.10833105 4.87226562,4.565 C4.61226432,5.02166895 4.48226563,5.5199973 4.48226563,6.06 C4.48226563,6.6000027 4.61226432,7.09833105 4.87226562,7.555 C5.13226692,8.01166895 5.48726337,8.373332 5.93726563,8.64 C6.38726788,8.906668 6.88226293,9.04 7.42226562,9.04 C7.90226802,9.04 8.30726398,8.9633341 8.63726563,8.81 C8.96726728,8.6566659 9.25226442,8.46 9.49226562,8.22 C9.81893392,7.8933317 10.0222652,7.4233364 10.1022656,6.81 L7.42226562,6.81 L7.42226562,5.69 L11.1922656,5.69 C11.2322658,5.890001 11.2522656,6.123332 11.2522656,6.39 C11.2522656,6.8633357 11.1755997,7.333331 11.0222656,7.8 C10.8689315,8.266669 10.6222673,8.6699983 10.2822656,9.01 C9.54892863,9.7766705 8.59560482,10.16 7.42226562,10.16 Z M29.0722656,2.24 L30.2322656,2.24 L30.2322656,10 L29.0722656,10 L29.0722656,2.24 Z M14.3022656,10.16 C13.8222632,10.16 13.3789343,10.0450012 12.9722656,9.815 C12.5655969,9.58499885 12.2439335,9.26833535 12.0072656,8.865 C11.7705978,8.46166465 11.6522656,8.0133358 11.6522656,7.52 C11.6522656,7.0199975 11.7705978,6.56833535 12.0072656,6.165 C12.2439335,5.76166465 12.5655969,5.4466678 12.9722656,5.22 C13.3789343,4.9933322 13.8222632,4.88 14.3022656,4.88 C14.782268,4.88 15.2255969,4.9933322 15.6322656,5.22 C16.0389343,5.4466678 16.3605978,5.76166465 16.5972656,6.165 C16.8339335,6.56833535 16.9522656,7.0199975 16.9522656,7.52 C16.9522656,8.0133358 16.8339335,8.46166465 16.5972656,8.865 C16.3605978,9.26833535 16.0389343,9.58499885 15.6322656,9.815 C15.2255969,10.0450012 14.782268,10.16 14.3022656,10.16 Z M20.0822656,10.16 C19.6022632,10.16 19.1589343,10.0450012 18.7522656,9.815 C18.3455969,9.58499885 18.0239335,9.26833535 17.7872656,8.865 C17.5505978,8.46166465 17.4322656,8.0133358 17.4322656,7.52 C17.4322656,7.0199975 17.5505978,6.56833535 17.7872656,6.165 C18.0239335,5.76166465 18.3455969,5.4466678 18.7522656,5.22 C19.1589343,4.9933322 19.6022632,4.88 20.0822656,4.88 C20.562268,4.88 21.0055969,4.9933322 21.4122656,5.22 C21.8189343,5.4466678 22.1405978,5.76166465 22.3772656,6.165 C22.6139335,6.56833535 22.7322656,7.0199975 22.7322656,7.52 C22.7322656,8.0133358 22.6139335,8.46166465 22.3772656,8.865 C22.1405978,9.26833535 21.8189343,9.58499885 21.4122656,9.815 C21.0055969,10.0450012 20.562268,10.16 20.0822656,10.16 Z M25.7622656,12.53 C25.175596,12.53 24.6822676,12.3733349 24.2822656,12.06 C23.8822636,11.7466651 23.5955998,11.3833354 23.4222656,10.97 L24.4322656,10.55 C24.5389328,10.8033346 24.7055978,11.0233324 24.9322656,11.21 C25.1589334,11.3966676 25.4355973,11.49 25.7622656,11.49 C26.2022678,11.49 26.5472644,11.356668 26.7972656,11.09 C27.0472669,10.823332 27.1722656,10.4400025 27.1722656,9.94 L27.1722656,9.56 L27.1322656,9.56 C26.9922649,9.7333342 26.8006002,9.8766661 26.5572656,9.99 C26.3139311,10.1033339 26.0422671,10.16 25.7422656,10.16 C25.3022634,10.16 24.8889342,10.0433345 24.5022656,9.81 C24.115597,9.5766655 23.8039335,9.25833535 23.5672656,8.855 C23.3305978,8.45166465 23.2122656,8.0100024 23.2122656,7.53 C23.2122656,7.0433309 23.3305978,6.59833535 23.5672656,6.195 C23.8039335,5.79166465 24.1172637,5.47166785 24.5072656,5.235 C24.8972676,4.99833215 25.3089301,4.88 25.7422656,4.88 C26.0422671,4.88 26.3139311,4.9366661 26.5572656,5.05 C26.8006002,5.1633339 26.9922649,5.3033325 27.1322656,5.47 L27.1722656,5.47 L27.1722656,5.04 L28.2722656,5.04 L28.2722656,9.78 C28.2722656,10.7000046 28.037268,11.388331 27.5672656,11.845 C27.0972633,12.3016689 26.4956026,12.53 25.7622656,12.53 Z M33.4122656,10.16 C32.9189298,10.16 32.4722676,10.0433345 32.0722656,9.81 C31.6722636,9.5766655 31.3589334,9.25833535 31.1322656,8.855 C30.9055978,8.45166465 30.7922656,8.0066691 30.7922656,7.52 C30.7922656,7.0066641 30.9039312,6.550002 31.1272656,6.15 C31.3506001,5.749998 31.6522637,5.43833445 32.0322656,5.215 C32.4122675,4.99166555 32.82893,4.88 33.2822656,4.88 C33.8889353,4.88 34.3789304,5.0566649 34.7522656,5.41 C35.1256008,5.7633351 35.3889315,6.1466646 35.5422656,6.56 L35.6622656,6.86 L32.1322656,8.32 C32.4056003,8.853336 32.8322627,9.12 33.4122656,9.12 C33.9456016,9.12 34.3789306,8.8766691 34.7122656,8.39 L35.6122656,8.99 C35.4122646,9.2900015 35.1289341,9.5599988 34.7622656,9.8 C34.3955971,10.0400012 33.9456016,10.16 33.4122656,10.16 Z M34.3022656,6.46 C34.2355986,6.2933325 34.1122665,6.15833385 33.9322656,6.055 C33.7522647,5.95166615 33.5489334,5.9 33.3222656,5.9 C33.1155979,5.9 32.9022667,5.9599994 32.6822656,6.08 C32.4622645,6.2000006 32.2822663,6.3766655 32.1422656,6.61 C32.0022649,6.8433345 31.9355989,7.1199984 31.9422656,7.44 L34.3022656,6.46 Z M14.3022656,9.12 C14.5689336,9.12 14.8155978,9.05166735 15.0422656,8.915 C15.2689334,8.77833265 15.4505983,8.58833455 15.5872656,8.345 C15.723933,8.10166545 15.7922656,7.8266682 15.7922656,7.52 C15.7922656,7.2133318 15.723933,6.93833455 15.5872656,6.695 C15.4505983,6.45166545 15.2689334,6.26166735 15.0422656,6.125 C14.8155978,5.98833265 14.5689336,5.92 14.3022656,5.92 C14.0355976,5.92 13.7889334,5.98833265 13.5622656,6.125 C13.3355978,6.26166735 13.153933,6.45166545 13.0172656,6.695 C12.8805983,6.93833455 12.8122656,7.2133318 12.8122656,7.52 C12.8122656,7.8266682 12.8805983,8.10166545 13.0172656,8.345 C13.153933,8.58833455 13.3355978,8.77833265 13.5622656,8.915 C13.7889334,9.05166735 14.0355976,9.12 14.3022656,9.12 Z M20.0822656,9.12 C20.3489336,9.12 20.5955978,9.05166735 20.8222656,8.915 C21.0489334,8.77833265 21.2305983,8.58833455 21.3672656,8.345 C21.503933,8.10166545 21.5722656,7.8266682 21.5722656,7.52 C21.5722656,7.2133318 21.503933,6.93833455 21.3672656,6.695 C21.2305983,6.45166545 21.0489334,6.26166735 20.8222656,6.125 C20.5955978,5.98833265 20.3489336,5.92 20.0822656,5.92 C19.8155976,5.92 19.5689334,5.98833265 19.3422656,6.125 C19.1155978,6.26166735 18.933933,6.45166545 18.7972656,6.695 C18.6605983,6.93833455 18.5922656,7.2133318 18.5922656,7.52 C18.5922656,7.8266682 18.6605983,8.10166545 18.7972656,8.345 C18.933933,8.58833455 19.1155978,8.77833265 19.3422656,8.915 C19.5689334,9.05166735 19.8155976,9.12 20.0822656,9.12 Z M25.8422656,9.12 C26.1022669,9.12 26.3405979,9.05166735 26.5572656,8.915 C26.7739334,8.77833265 26.9439317,8.58833455 27.0672656,8.345 C27.1905996,8.10166545 27.2522656,7.8300015 27.2522656,7.53 C27.2522656,7.2233318 27.1905996,6.94833455 27.0672656,6.705 C26.9439317,6.46166545 26.7739334,6.2700007 26.5572656,6.13 C26.3405979,5.9899993 26.1022669,5.92 25.8422656,5.92 C25.5755976,5.92 25.3306001,5.9899993 25.1072656,6.13 C24.8839312,6.2700007 24.7055996,6.4633321 24.5722656,6.71 C24.4389316,6.9566679 24.3722656,7.2299985 24.3722656,7.53 C24.3722656,7.8300015 24.4389316,8.10166545 24.5722656,8.345 C24.7055996,8.58833455 24.8839312,8.77833265 25.1072656,8.915 C25.3306001,9.05166735 25.5755976,9.12 25.8422656,9.12 Z M37.1466406,10.0488281 C36.7999609,10.0488281 36.511875,9.76074219 36.511875,9.4140625 C36.511875,9.0625 36.7999609,8.77929688 37.1466406,8.77929688 C37.4982031,8.77929688 37.7814063,9.0625 37.7814063,9.4140625 C37.7814063,9.76074219 37.4982031,10.0488281 37.1466406,10.0488281 Z" id="g." fill="#5F6368" fill-rule="nonzero"></path>
    </g>
</svg>